<?xml version="1.0" standalone="no"?>
<!DOCTYPE svg PUBLIC "-//W3C//DTD SVG 20010904//EN"
 "http://www.w3.org/TR/2001/REC-SVG-20010904/DTD/svg10.dtd">
<svg version="1.0" xmlns="http://www.w3.org/2000/svg"
 width="260.000000pt" height="260.000000pt" viewBox="0 0 260.000000 260.000000"
 preserveAspectRatio="xMidYMid meet">
<metadata>
Created by potrace 1.14, written by Peter Selinger 2001-2017
</metadata>
<g transform="translate(0.000000,260.000000) scale(0.100000,-0.100000)"
fill="#000000" stroke="none">
<path d="M0 1300 l0 -1300 1300 0 1300 0 0 1300 0 1300 -1300 0 -1300 0 0
-1300z m1052 673 c25 -24 28 -34 28 -90 l0 -63 62 0 c56 0 65 -3 95 -32 l33
-32 0 -180 0 -180 -32 -33 c-30 -31 -37 -33 -96 -33 l-63 0 3 -32 3 -33 65 -3
c54 -3 70 -7 93 -29 l27 -27 0 -180 0 -180 -32 -33 c-29 -30 -37 -33 -95 -33
l-63 0 0 -62 c0 -54 -4 -66 -27 -90 l-27 -28 -366 0 -366 0 -27 28 c-23 24
-27 36 -27 90 l0 62 -62 0 c-54 0 -66 4 -90 27 l-28 27 0 190 c0 181 1 191 22
213 18 20 31 23 90 23 l68 0 0 35 0 35 -59 0 c-49 0 -65 4 -90 26 l-31 26 0
191 0 191 27 28 c24 25 34 28 90 28 l63 0 0 62 c0 54 4 66 27 90 l27 28 365 0
365 0 28 -27z m1472 -7 c23 -31 26 -44 26 -117 0 -80 -1 -84 -32 -116 l-32
-33 -333 0 -333 0 0 -35 0 -35 243 0 243 0 27 -28 c23 -24 27 -36 27 -90 l0
-62 62 0 c56 0 65 -3 95 -32 l33 -32 0 -270 0 -270 -32 -33 c-29 -30 -37 -33
-95 -33 l-63 0 0 -62 c0 -54 -4 -66 -27 -90 l-27 -28 -366 0 -366 0 -27 28
c-23 24 -27 36 -27 90 l0 62 -62 0 c-54 0 -66 4 -90 27 -27 26 -28 31 -28 123
0 92 1 97 28 123 l28 27 179 0 179 0 33 -32 c30 -29 33 -37 33 -90 l0 -58 125
0 125 0 0 215 0 215 -334 0 -334 0 -31 26 -31 26 0 281 0 281 27 28 27 28 552
0 552 0 26 -34z"/>
<path d="M540 1575 l0 -125 125 0 125 0 0 125 0 125 -125 0 -125 0 0 -125z"/>
<path d="M540 1025 l0 -125 125 0 125 0 0 125 0 125 -125 0 -125 0 0 -125z"/>
</g>
</svg>
